# xmcd
#
# Track frame offsets:
#	150
#	20090
#	44124
#	59116
#	80662
#	100582
#	119977
#	138974
#	159006
#	179968
#	196194
#	209996
#
# Disc length: 3043 seconds
# Revision: 0
# Processed by: cddbd v1.5.2PL0 Copyright (c) Steve Scherf et al.
# Submitted via: dBpowerAMP V12.0
#
DISCID=c00be10c
DTITLE=Krys Blues Band - Czas
DYEAR=1900
DGENRE=Blues
TTITLE0=Pokonać czas
TTITLE1=Gitara i blues
TTITLE2=Pocket jim
TTITLE3=Słuchaj mnie
TTITLE4=Nie dla mnie miłość
TTITLE5=Szukasz swoich dróg
TTITLE6=Anioł Twój dobry duch
TTITLE7=Nie czekaj szkoda dnia
TTITLE8=Powracajaca samba
TTITLE9=Dziś odchodzę
TTITLE10=Dolina Słońc
TTITLE11=Jak Holywood
EXTD=
EXTT0=
EXTT1=
EXTT2=
EXTT3=
EXTT4=
EXTT5=
EXTT6=
EXTT7=
EXTT8=
EXTT9=
EXTT10=
EXTT11=
PLAYORDER=
